<svg width="148" height="79" viewBox="0 0 148 79" fill="none" xmlns="http://www.w3.org/2000/svg">
<path d="M1.79281 36.1309L4.65368 35.902V19.7667L1.90725 19.0801V17.0203L7.17125 16.3337H7.24754L8.08673 17.0203V17.7069L7.9723 20.6822H8.08673C8.34103 20.2499 8.79877 19.6904 9.45995 19.0038C10.1211 18.3172 10.973 17.6942 12.0157 17.1347C13.0583 16.5498 14.1899 16.2574 15.4106 16.2574C15.9192 16.2574 16.3388 16.3209 16.6693 16.4481V20.7203C16.4913 20.5932 16.1989 20.4787 15.792 20.377C15.4106 20.2499 14.9783 20.1863 14.4951 20.1863C12.3844 20.1863 10.4263 20.8348 8.62076 22.1317V35.8639L13.4652 36.169V38H1.79281V36.1309ZM22.7347 34.9484C22.989 35.3299 23.523 35.6732 24.3368 35.9783C25.176 36.2835 26.0533 36.4361 26.9688 36.4361C28.4183 36.4361 29.4863 36.1563 30.173 35.5969C30.8596 35.0374 31.2029 34.2618 31.2029 33.27C31.2029 32.5834 30.9867 31.9858 30.5544 31.4772C30.1221 30.9686 29.5118 30.5236 28.7235 30.1421C27.9606 29.7353 26.8543 29.2521 25.4048 28.6926C23.4467 27.9552 22.0099 27.0778 21.0945 26.0606C20.2044 25.018 19.7594 23.6575 19.7594 21.9791C19.7594 20.8602 20.09 19.8811 20.7512 19.042C21.4378 18.2028 22.366 17.5543 23.5357 17.0966C24.7309 16.6134 26.0533 16.3718 27.5028 16.3718C28.6726 16.3718 29.6898 16.4608 30.5544 16.6388C31.4445 16.8168 32.1565 16.9948 32.6905 17.1729C33.2246 17.3509 33.5806 17.4653 33.7586 17.5162V22.2461H31.4317L30.6688 19.4234C30.5163 19.1182 30.1094 18.8639 29.4482 18.6605C28.787 18.4316 28.0496 18.3172 27.2358 18.3172C26.0914 18.3172 25.1633 18.5715 24.4512 19.0801C23.7646 19.5887 23.4213 20.2753 23.4213 21.1399C23.4213 21.9028 23.5993 22.5386 23.9553 23.0472C24.3368 23.5303 24.8072 23.9245 25.3667 24.2297C25.9262 24.5348 26.6891 24.8909 27.6554 25.2977L28.4183 25.6029C29.8424 26.1623 30.9994 26.6964 31.8895 27.205C32.7795 27.7136 33.517 28.3875 34.1019 29.2267C34.7122 30.0404 35.0174 31.0449 35.0174 32.2401C35.0174 34.1219 34.2799 35.6223 32.805 36.7412C31.3555 37.8601 29.3592 38.4196 26.8162 38.4196C25.5701 38.4196 24.2605 38.2543 22.8873 37.9237C21.5395 37.5677 20.4333 37.2117 19.5687 36.8557V31.9731H22.0481L22.7347 34.9484ZM41.9934 34.9484C42.2477 35.3299 42.7818 35.6732 43.5955 35.9783C44.4347 36.2835 45.312 36.4361 46.2275 36.4361C47.677 36.4361 48.7451 36.1563 49.4317 35.5969C50.1183 35.0374 50.4616 34.2618 50.4616 33.27C50.4616 32.5834 50.2454 31.9858 49.8131 31.4772C49.3808 30.9686 48.7705 30.5236 47.9822 30.1421C47.2193 29.7353 46.1131 29.2521 44.6636 28.6926C42.7055 27.9552 41.2687 27.0778 40.3532 26.0606C39.4631 25.018 39.0181 23.6575 39.0181 21.9791C39.0181 20.8602 39.3487 19.8811 40.0099 19.042C40.6965 18.2028 41.6247 17.5543 42.7945 17.0966C43.9897 16.6134 45.312 16.3718 46.7615 16.3718C47.9313 16.3718 48.9485 16.4608 49.8131 16.6388C50.7032 16.8168 51.4152 16.9948 51.9493 17.1729C52.4833 17.3509 52.8393 17.4653 53.0173 17.5162V22.2461H50.6905L49.9276 19.4234C49.775 19.1182 49.3681 18.8639 48.7069 18.6605C48.0458 18.4316 47.3083 18.3172 46.4945 18.3172C45.3502 18.3172 44.422 18.5715 43.7099 19.0801C43.0233 19.5887 42.68 20.2753 42.68 21.1399C42.68 21.9028 42.858 22.5386 43.2141 23.0472C43.5955 23.5303 44.066 23.9245 44.6254 24.2297C45.1849 24.5348 45.9478 24.8909 46.9141 25.2977L47.677 25.6029C49.1011 26.1623 50.2582 26.6964 51.1482 27.205C52.0383 27.7136 52.7757 28.3875 53.3606 29.2267C53.9709 30.0404 54.2761 31.0449 54.2761 32.2401C54.2761 34.1219 53.5386 35.6223 52.0637 36.7412C50.6142 37.8601 48.6179 38.4196 46.0749 38.4196C44.8289 38.4196 43.5192 38.2543 42.146 37.9237C40.7982 37.5677 39.692 37.2117 38.8274 36.8557V31.9731H41.3068L41.9934 34.9484Z" fill="white"/>
<path d="M43.409 65.1465C43.6633 65.5279 44.1974 65.8712 45.0111 66.1764C45.8503 66.4816 46.7276 66.6341 47.6431 66.6341C49.0926 66.6341 50.1607 66.3544 50.8473 65.795C51.5339 65.2355 51.8772 64.4599 51.8772 63.4681C51.8772 62.7815 51.661 62.1839 51.2287 61.6753C50.7964 61.1667 50.1861 60.7217 49.3978 60.3402C48.6349 59.9333 47.5287 59.4502 46.0792 58.8907C44.1211 58.1533 42.6843 57.2759 41.7688 56.2587C40.8787 55.2161 40.4337 53.8556 40.4337 52.1772C40.4337 51.0583 40.7643 50.0792 41.4255 49.24C42.1121 48.4009 43.0403 47.7524 44.2101 47.2947C45.4053 46.8115 46.7276 46.5699 48.1771 46.5699C49.3469 46.5699 50.3641 46.6589 51.2287 46.8369C52.1188 47.0149 52.8308 47.1929 53.3649 47.3709C53.8989 47.549 54.2549 47.6634 54.4329 47.7142V52.4442H52.1061L51.3432 49.6215C51.1906 49.3163 50.7837 49.062 50.1225 48.8586C49.4614 48.6297 48.7239 48.5153 47.9101 48.5153C46.7658 48.5153 45.8376 48.7696 45.1255 49.2782C44.4389 49.7868 44.0956 50.4734 44.0956 51.338C44.0956 52.1009 44.2736 52.7367 44.6297 53.2453C45.0111 53.7284 45.4816 54.1226 46.041 54.4278C46.6005 54.7329 47.3634 55.0889 48.3297 55.4958L49.0926 55.801C50.5167 56.3604 51.6738 56.8945 52.5638 57.4031C53.4539 57.9117 54.1913 58.5856 54.7762 59.4247C55.3865 60.2385 55.6917 61.243 55.6917 62.4382C55.6917 64.32 54.9542 65.8204 53.4793 66.9393C52.0298 68.0582 50.0335 68.6177 47.4905 68.6177C46.2445 68.6177 44.9348 68.4524 43.5616 68.1218C42.2138 67.7658 41.1076 67.4098 40.243 67.0537V62.1712H42.7224L43.409 65.1465ZM57.1367 47.0276H66.0245V48.8205L63.1255 49.2782L66.2915 60.4928L67.3977 65.3372L68.5039 60.4547L72.1658 47.0276H75.9041L79.6804 60.4547L80.7866 65.3754L82.0072 60.4928L85.097 49.3163L82.198 48.8205V47.0276H89.9414V48.8205L87.9197 49.3163L82.0072 68.5032H78.4216L74.3783 55.0381L73.3865 50.3081L72.5854 55.0381L68.7328 68.5032H65.1853L59.0821 49.2782L57.1367 48.8205V47.0276ZM95.6199 43.2131C94.8062 43.2131 94.1959 42.9843 93.789 42.5265C93.3821 42.0688 93.1787 41.4839 93.1787 40.7719C93.1787 39.9581 93.4202 39.2842 93.9034 38.7502C94.412 38.2162 95.0986 37.9491 95.9632 37.9491C96.8279 37.9491 97.4636 38.178 97.8705 38.6357C98.2774 39.0935 98.4808 39.6784 98.4808 40.3904C98.4808 41.255 98.2265 41.9416 97.7179 42.4502C97.2347 42.9588 96.5481 43.2131 95.6581 43.2131H95.6199ZM94.0941 49.9648L91.1951 49.2782V47.2565L97.1076 46.5318H97.1839L98.0612 47.2184V66.0238L101.113 66.329V68.1981H91.0044V66.329L94.0941 65.9857V49.9648ZM124.458 56.869C124.458 59.0306 124.013 61.0141 123.123 62.8197C122.233 64.5997 120.961 66.0111 119.308 67.0537C117.655 68.0964 115.723 68.6177 113.51 68.6177C112.9 68.6177 112.239 68.5668 111.527 68.4651C110.815 68.3634 110.242 68.2362 109.81 68.0837L109.925 71.2878V75.1405L113.892 75.5601V77.4292H103.249V75.5601L105.996 75.1405V49.9648L103.211 49.2782V47.2184L108.628 46.5318H108.704L109.505 47.2184V49.4689C110.268 48.6297 111.209 47.9177 112.328 47.3328C113.472 46.7479 114.744 46.4555 116.142 46.4555C117.643 46.4555 119.016 46.8242 120.262 47.5617C121.533 48.2991 122.551 49.4435 123.313 50.9947C124.076 52.5459 124.458 54.5041 124.458 56.869ZM114.578 49.1256C113.612 49.1256 112.709 49.3291 111.87 49.7359C111.031 50.1428 110.382 50.5878 109.925 51.071V65.4517C110.103 65.7568 110.548 66.0365 111.26 66.2908C111.997 66.5197 112.798 66.6341 113.663 66.6341C115.621 66.6341 117.198 65.8585 118.393 64.3073C119.613 62.7561 120.224 60.4165 120.224 57.2886C120.224 54.5422 119.69 52.4951 118.622 51.1473C117.579 49.7995 116.231 49.1256 114.578 49.1256ZM137.157 68.6177C134.08 68.6177 131.728 67.6132 130.101 65.6042C128.498 63.5953 127.697 60.9124 127.697 57.5556C127.697 55.3432 128.117 53.3978 128.956 51.7195C129.795 50.0411 130.965 48.7442 132.466 47.8287C133.991 46.9132 135.721 46.4555 137.653 46.4555C140.018 46.4555 141.849 47.1166 143.146 48.439C144.469 49.7359 145.168 51.605 145.244 54.0463C145.244 55.5975 145.155 56.78 144.977 57.5938H131.855C131.906 60.1114 132.491 62.1458 133.61 63.697C134.729 65.2228 136.318 65.9857 138.378 65.9857C139.395 65.9857 140.451 65.8077 141.544 65.4517C142.663 65.0702 143.528 64.6252 144.138 64.1166L144.863 65.795C144.125 66.5579 143.032 67.219 141.582 67.7785C140.133 68.338 138.658 68.6177 137.157 68.6177ZM141.048 55.5721C141.124 55.0381 141.163 54.4913 141.163 53.9319C141.137 52.2789 140.781 50.982 140.095 50.0411C139.433 49.0748 138.378 48.5916 136.929 48.5916C135.454 48.5916 134.271 49.1256 133.381 50.1937C132.516 51.2617 132.021 53.0545 131.893 55.5721H141.048Z" fill="white"/>
<rect x="20.5" y="45.5" width="14" height="20" fill="#0A0A0A" stroke="white" stroke-linejoin="round"/>
<rect x="20.5" y="45.5" width="14" height="20" fill="#0A0A0A" stroke="white" stroke-linejoin="round"/>
<rect x="18.5" y="47.5" width="14" height="20" fill="#0A0A0A" stroke="white" stroke-linejoin="round"/>
<rect x="9.3467" y="54.7054" width="14" height="20" transform="rotate(-22.5049 9.3467 54.7054)" fill="#0A0A0A" stroke="white" stroke-linejoin="round"/>
</svg>
