<svg width="360" height="210" viewBox="0 0 360 210" fill="none" xmlns="http://www.w3.org/2000/svg">
<g opacity="0.5" clip-path="url(#clip0_596_2)">
<path d="M448.268 225.037C445.78 253.754 433.251 281.504 415.38 304.455C414.633 305.415 413.877 306.366 413.112 307.308C411.391 309.428 409.625 311.508 407.815 313.547C405.6 316.061 403.321 318.516 400.977 320.913C399.069 322.886 397.117 324.817 395.12 326.706C393.579 328.179 392.02 329.624 390.443 331.039C371.478 348.164 349.69 362.296 327.242 374.654C283.433 398.765 235.415 417.03 185.469 419.69C135.53 422.343 83.3959 408.051 46.7719 374.015C-2.58703 328.146 -16.3627 251.641 3.67706 187.334C17.0058 144.552 44.2103 105.849 81.2345 80.5719C117.938 55.5146 164.242 44.2357 208.064 51.6083C243.047 30.3639 288.844 29.9573 326.875 45.6823C347.168 54.0747 365.38 66.5534 381.358 81.6319C388.674 88.5517 395.521 95.9518 401.851 103.783C402.498 104.576 403.138 105.376 403.772 106.183C406.427 109.536 408.996 112.957 411.477 116.448C415.04 121.454 418.422 126.572 421.624 131.8C422.504 133.24 423.378 134.686 424.232 136.146C424.806 137.126 425.386 138.113 425.953 139.106C425.966 139.126 425.975 139.149 425.98 139.173C434.859 154.778 442.117 171.429 445.9 188.834C446.567 191.914 447.127 195.007 447.561 198.126V198.133C447.941 200.779 448.228 203.439 448.421 206.112C448.878 212.414 448.826 218.743 448.268 225.037Z" fill="#673614"/>
<path opacity="0.3" d="M317.944 268.45L218.905 186.007L315.119 271.752C315.306 272.066 315.564 272.33 315.873 272.524C316.183 272.718 316.534 272.836 316.897 272.867C317.261 272.898 317.627 272.842 317.964 272.704C318.302 272.566 318.602 272.349 318.839 272.071C319.076 271.794 319.244 271.464 319.328 271.11C319.412 270.755 319.41 270.385 319.323 270.031C319.235 269.677 319.064 269.349 318.825 269.074C318.585 268.799 318.283 268.585 317.944 268.45Z" fill="#EAB692"/>
<path d="M90.8208 226.497C123.611 226.497 150.193 199.935 150.193 167.17C150.193 134.404 123.611 107.843 90.8208 107.843C58.0304 107.843 31.4486 134.404 31.4486 167.17C31.4486 199.935 58.0304 226.497 90.8208 226.497Z" fill="#EEC3A5"/>
<path d="M143.522 163.17C143.522 170.261 142.125 177.282 139.41 183.833C136.694 190.384 132.714 196.337 127.697 201.351C122.679 206.365 116.722 210.342 110.166 213.055C103.609 215.769 96.5827 217.165 89.4865 217.164C83.1617 217.161 76.8859 216.055 70.9411 213.898C61.6458 210.514 53.4577 204.647 47.2682 196.935C41.0787 189.224 37.125 179.963 35.8377 170.162C34.5504 160.361 35.9787 150.394 39.9672 141.348C43.9556 132.301 50.3514 124.522 58.4581 118.856C66.5648 113.19 76.0717 109.855 85.9438 109.214C95.8159 108.573 105.675 110.65 114.447 115.22C123.219 119.79 130.569 126.678 135.695 135.132C140.822 143.587 143.529 153.285 143.522 163.17Z" fill="#F1CFB7"/>
<path d="M80.1471 161.837C89.3579 161.837 96.8247 154.376 96.8247 145.172C96.8247 135.968 89.3579 128.507 80.1471 128.507C70.9363 128.507 63.4695 135.968 63.4695 145.172C63.4695 154.376 70.9363 161.837 80.1471 161.837Z" fill="#EAB692"/>
<path d="M141.414 148.192C137.799 149.929 133.679 150.307 129.809 149.256C125.938 148.205 122.576 145.795 120.339 142.468C118.102 139.141 117.14 135.12 117.629 131.142C118.118 127.164 120.026 123.495 123.002 120.808C131.846 127.794 138.284 137.369 141.414 148.192Z" fill="#EEC3A5"/>
<path d="M107.498 187.167C110.814 187.167 113.502 184.481 113.502 181.168C113.502 177.855 110.814 175.169 107.498 175.169C104.182 175.169 101.494 177.855 101.494 181.168C101.494 184.481 104.182 187.167 107.498 187.167Z" fill="#EAB692"/>
<path d="M82.8155 215.164C82.8151 215.691 82.7455 216.216 82.6087 216.724C78.625 216.226 74.7107 215.278 70.9411 213.898C71.2542 212.45 72.0919 211.17 73.2931 210.302C74.4944 209.435 75.9742 209.042 77.4479 209.199C78.9216 209.356 80.2851 210.052 81.276 211.154C82.2669 212.255 82.8153 213.683 82.8155 215.164Z" fill="#EEC3A5"/>
<path d="M47.4591 160.504C47.4587 163.547 46.301 166.477 44.2201 168.7C42.1393 170.923 39.2909 172.273 36.2517 172.476C34.8761 164.552 35.2771 156.422 37.4258 148.672C40.2289 149.139 42.7754 150.584 44.6125 152.75C46.4496 154.917 47.4582 157.664 47.4591 160.504Z" fill="#EEC3A5"/>
<path d="M343.569 141.442C344.933 141.442 346.039 140.337 346.039 138.974C346.039 137.611 344.933 136.506 343.569 136.506C342.205 136.506 341.099 137.611 341.099 138.974C341.099 140.337 342.205 141.442 343.569 141.442Z" fill="#D97937"/>
<path d="M320.785 81.3992C321.582 81.3992 322.228 80.7536 322.228 79.9573C322.228 79.1609 321.582 78.5154 320.785 78.5154C319.988 78.5154 319.342 79.1609 319.342 79.9573C319.342 80.7536 319.988 81.3992 320.785 81.3992Z" fill="#EAB692"/>
<path d="M264.081 66.7341C264.878 66.7341 265.524 66.0886 265.524 65.2922C265.524 64.4959 264.878 63.8503 264.081 63.8503C263.284 63.8503 262.638 64.4959 262.638 65.2922C262.638 66.0886 263.284 66.7341 264.081 66.7341Z" fill="#EAB692"/>
<path d="M156.677 80.0659C157.474 80.0659 158.12 79.4204 158.12 78.624C158.12 77.8277 157.474 77.1821 156.677 77.1821C155.88 77.1821 155.234 77.8277 155.234 78.624C155.234 79.4204 155.88 80.0659 156.677 80.0659Z" fill="#EAB692"/>
<path d="M194.035 150.059C194.832 150.059 195.478 149.413 195.478 148.617C195.478 147.82 194.832 147.175 194.035 147.175C193.238 147.175 192.592 147.82 192.592 148.617C192.592 149.413 193.238 150.059 194.035 150.059Z" fill="#EAB692"/>
<path d="M268.937 149.822C269.734 149.822 270.38 149.177 270.38 148.38C270.38 147.584 269.734 146.938 268.937 146.938C268.14 146.938 267.494 147.584 267.494 148.38C267.494 149.177 268.14 149.822 268.937 149.822Z" fill="#EAB692"/>
<path d="M338.069 197.942C339.649 197.942 340.93 196.662 340.93 195.083C340.93 193.504 339.649 192.224 338.069 192.224C336.489 192.224 335.208 193.504 335.208 195.083C335.208 196.662 336.489 197.942 338.069 197.942Z" fill="#DD874C"/>
<path d="M221.993 103.285C223.573 103.285 224.854 102.005 224.854 100.426C224.854 98.8469 223.573 97.5669 221.993 97.5669C220.413 97.5669 219.132 98.8469 219.132 100.426C219.132 102.005 220.413 103.285 221.993 103.285Z" fill="#DD874C"/>
<path d="M418.414 355.25C409.801 355.25 400.36 354.925 390.091 354.274C336.981 350.904 268.186 339.187 196.381 321.283C124.575 303.379 58.3369 281.425 9.86835 259.467C-13.7421 248.77 -31.863 238.645 -43.9904 229.372C-56.8302 219.555 -62.4465 210.997 -60.684 203.939C-57.2497 190.188 -26.8412 187.179 -1.93623 187.077L-1.92776 189.077C-36.1288 189.217 -56.3058 194.668 -58.7419 204.423C-61.8452 216.849 -36.5363 236.247 10.6948 257.645C59.0568 279.555 125.173 301.467 196.865 319.343C268.557 337.219 337.225 348.916 390.218 352.279C441.971 355.563 473.435 350.32 476.538 337.895C479.114 327.578 462.13 312.38 428.714 295.1L429.634 293.324C453.914 305.88 482.098 323.889 478.48 338.379C476.717 345.437 467.736 350.354 451.786 352.993C442.694 354.496 431.526 355.25 418.414 355.25Z" fill="#D97937"/>
<path d="M160.116 23.3083C166.557 23.3083 171.779 18.0905 171.779 11.6541C171.779 5.21774 166.557 0 160.116 0C153.674 0 148.453 5.21774 148.453 11.6541C148.453 18.0905 153.674 23.3083 160.116 23.3083Z" fill="#F1CFB7"/>
<path d="M24.0266 79.4485C27.9697 79.4485 31.1662 76.2544 31.1662 72.3143C31.1662 68.3742 27.9697 65.1802 24.0266 65.1802C20.0836 65.1802 16.8871 68.3742 16.8871 72.3143C16.8871 76.2544 20.0836 79.4485 24.0266 79.4485Z" fill="#DD874C"/>
</g>
<defs>
<clipPath id="clip0_596_2">
<rect width="571" height="420" fill="white" transform="translate(-61)"/>
</clipPath>
</defs>
</svg>
